<?xml version="1.0" encoding="UTF-8" standalone="no"?>
<!-- Generator: Adobe Illustrator 15.0.0, SVG Export Plug-In  -->
<svg id="svg2" xmlns:rdf="http://www.w3.org/1999/02/22-rdf-syntax-ns#" xmlns="http://www.w3.org/2000/svg" enable-background="new 0 0 67 57" xml:space="preserve" height="57px" width="67px" version="1.1" y="0px" x="0px" xmlns:cc="http://creativecommons.org/ns#" xmlns:dc="http://purl.org/dc/elements/1.1/" viewBox="0 0 67 57"><metadata id="metadata30"><rdf:RDF><cc:Work rdf:about=""><dc:format>image/svg+xml</dc:format><dc:type rdf:resource="http://purl.org/dc/dcmitype/StillImage"/><dc:title/></cc:Work></rdf:RDF></metadata>
<defs id="defs4">
</defs>
<rect id="BOUNDING_BOX_1_" width="67" height="57" fill="none"/>
<path id="path20" fill="#FFF" d="m54.474,23.265c2.095-2.092,0.107-3.507,0.107-3.507-0.991-1.083-3.43-1.175-3.43-1.175-3.88-0.543-6.938-3.016-6.938-3.016l-8.041-5.806c-7.547-4.991-13.439-3.155-16.826-1.045-0.726-1.158-2.003-1.934-3.472-1.934-2.258,0-4.096,1.836-4.096,4.096,0,1.469,0.779,2.743,1.938,3.469-2.113,3.387-3.947,9.277,1.043,16.826l5.804,8.044s2.476,3.05,3.018,6.936c0,0,0.092,2.436,1.175,3.429,0,0,1.415,1.987,3.513-0.107l9.715-9.713c0.675,2.252,2.74,3.904,5.213,3.904,3.016,0,5.464-2.445,5.464-5.462,0-2.473-1.652-4.538-3.906-5.214l0.136-0.137,9.583-9.588z"/>
<path id="path22" d="M45.475,33.269l-0.583,0.584-0.136,0.137c2.128,0.638,3.701,2.52,3.872,4.809,0.021-0.195,0.034-0.394,0.034-0.595,0-2.201-1.311-4.072-3.187-4.935z" fill="#FFF"/>
<path id="path26" d="M13.718,15.347c-0.144-0.09-0.281-0.188-0.413-0.294-0.998,1.81-1.822,4.202-1.724,7.076,0.113-2.807,1.089-5.103,2.137-6.782z" fill="#FFF"/>
</svg>
