<?xml version="1.0" encoding="UTF-8" standalone="no"?>
<svg
   xmlns:dc="http://purl.org/dc/elements/1.1/"
   xmlns:cc="http://creativecommons.org/ns#"
   xmlns:rdf="http://www.w3.org/1999/02/22-rdf-syntax-ns#"
   xmlns:svg="http://www.w3.org/2000/svg"
   xmlns="http://www.w3.org/2000/svg"
   xmlns:sodipodi="http://sodipodi.sourceforge.net/DTD/sodipodi-0.dtd"
   xmlns:inkscape="http://www.inkscape.org/namespaces/inkscape"
   height="42px"
   version="1.1"
   viewBox="0 0 42 42"
   width="42px"
   x="0px"
   y="0px"
   id="svg49"
   sodipodi:docname="test.svg"
   inkscape:version="0.92.2 (5c3e80d, 2017-08-06)">
  <metadata
     id="metadata53">
    <rdf:RDF>
      <cc:Work
         rdf:about="">
        <dc:format>image/svg+xml</dc:format>
        <dc:type
           rdf:resource="http://purl.org/dc/dcmitype/StillImage" />
      </cc:Work>
    </rdf:RDF>
  </metadata>
  <sodipodi:namedview
     pagecolor="#ffffff"
     bordercolor="#666666"
     borderopacity="1"
     objecttolerance="10"
     gridtolerance="10"
     guidetolerance="10"
     inkscape:pageopacity="0"
     inkscape:pageshadow="2"
     inkscape:window-width="1920"
     inkscape:window-height="1001"
     id="namedview51"
     showgrid="false"
     inkscape:zoom="22.47619"
     inkscape:cx="5.7844408"
     inkscape:cy="20.580396"
     inkscape:window-x="-9"
     inkscape:window-y="-9"
     inkscape:window-maximized="1"
     inkscape:current-layer="svg49" />
  <linearGradient
     gradientUnits="userSpaceOnUse"
     id="SVGID_1_"
     x1="20.9995"
     x2="20.9995"
     y1="4.1431"
     y2="38.7565"
     gradientTransform="translate(4.9981566e-4)">
    <stop
       offset="0"
       style="stop-color:#FFFFFF"
       id="stop4" />
    <stop
       offset="0.1404"
       style="stop-color:#FFFFFF;stop-opacity:0.8596"
       id="stop6" />
    <stop
       offset="1"
       style="stop-color:#FFFFFF;stop-opacity:0"
       id="stop8" />
  </linearGradient>
  <path
     d="m 21.0005,3.8569998 v 0 C 8.3024998,3.8569998 3.8574998,8.3000001 3.8574998,21 c 0,12.701 4.445,17.143 17.1430002,17.143 v 0 c 12.698,0 17.142,-4.441 17.142,-17.143 C 38.1435,8.3000001 33.6985,3.8569998 21.0005,3.8569998 Z"
     id="path11"
     style="fill:url(#SVGID_1_);fill-opacity:0.3;stroke-opacity:0.3"
     inkscape:connector-curvature="0" />
  <linearGradient
     gradientUnits="userSpaceOnUse"
     id="SVGID_2_"
     x1="21.0005"
     x2="21.0005"
     y1="39"
     y2="3.0005">
    <stop
       offset="0"
       style="stop-color:#FFFFFF"
       id="stop13" />
    <stop
       offset="1"
       style="stop-color:#FFFFFF;stop-opacity:0.5"
       id="stop15" />
  </linearGradient>
  <path
     d="M21,3.857C33.698,3.857,38.143,8.3,38.143,21c0,12.701-4.444,17.143-17.142,17.143  l0,0C8.302,38.143,3.857,33.701,3.857,21C3.857,8.3,8.302,3.857,21,3.857L21,3.857 M21,3L21,3C7.878,3,3,7.879,3,21  c0,13.122,4.878,18,18,18l0,0c13.122,0,18-4.878,18-18C39,7.879,34.122,3,21,3L21,3z"
     fill="url(#SVGID_2_)"
     fill-opacity="0.35"
     stroke-opacity="0.35"
     id="path18" />
  <linearGradient
     gradientUnits="userSpaceOnUse"
     id="SVGID_3_"
     x1="21.0005"
     x2="21.0005"
     y1="13.2856"
     y2="29.5742">
    <stop
       offset="0"
       style="stop-color:#FFFFFF"
       id="stop22" />
    <stop
       offset="1"
       style="stop-color:#D7D7D7"
       id="stop24" />
  </linearGradient>
  <path
     d="M19.027,29.277l12.186-12.072c0.504-0.509,0.537-1.432,0.062-1.905l-1.069-1.068  c-0.233-0.236-0.551-0.363-0.896-0.363c-0.368,0-0.736,0.155-1.006,0.425L17.98,24.507l-4.254-3.966  c-0.273-0.272-0.641-0.428-1.013-0.424c-0.343,0-0.656,0.127-0.889,0.362l-1.071,1.068c-0.233,0.233-0.363,0.551-0.363,0.893  c0,0.372,0.159,0.74,0.429,1.013l6.01,5.716c0.132,0.14,0.293,0.242,0.479,0.319C17.825,29.835,18.556,29.748,19.027,29.277z"
     fill="url(#SVGID_3_)"
     id="path27"
     style="fill:#ffffff" />
  <linearGradient
     gradientUnits="userSpaceOnUse"
     id="SVGID_6_"
     x1="20.9995"
     x2="20.9995"
     y1="4.5005"
     y2="37.2861">
    <stop
       offset="0"
       style="stop-color:#000000"
       id="stop33" />
    <stop
       offset="1"
       style="stop-color:#000000;stop-opacity:0"
       id="stop35" />
  </linearGradient>
  <rect
     fill="none"
     height="42"
     width="42"
     id="rect40" />
  <defs
     id="defs47">
    <linearGradient
       gradientUnits="userSpaceOnUse"
       id="SVGID_4_"
       x1="20.9995"
       x2="20.9995"
       y1="4.5005"
       y2="37.2861">
      <stop
         offset="0"
         style="stop-color:#000000"
         id="stop42" />
      <stop
         offset="1"
         style="stop-color:#000000;stop-opacity:0"
         id="stop44" />
    </linearGradient>
  </defs>
</svg>
