<?xml version="1.0" encoding="UTF-8" standalone="no"?>
<!-- Generator: Adobe Illustrator 17.0.1, SVG Export Plug-In . SVG Version: 6.00 Build 0)  -->

<svg
   xmlns:dc="http://purl.org/dc/elements/1.1/"
   xmlns:cc="http://creativecommons.org/ns#"
   xmlns:rdf="http://www.w3.org/1999/02/22-rdf-syntax-ns#"
   xmlns:svg="http://www.w3.org/2000/svg"
   xmlns="http://www.w3.org/2000/svg"
   xmlns:sodipodi="http://sodipodi.sourceforge.net/DTD/sodipodi-0.dtd"
   xmlns:inkscape="http://www.inkscape.org/namespaces/inkscape"
   version="1.1"
   x="0px"
   y="0px"
   width="86px"
   height="86px"
   viewBox="0 0 86 86"
   enable-background="new 0 0 86 86"
   xml:space="preserve"
   id="svg2"
   inkscape:version="0.48.4 r9939"
   sodipodi:docname="icon-base.svg"
   inkscape:export-filename="C:\Users\me\Desktop\nightlyClockSailfish.png"
   inkscape:export-xdpi="209.30232"
   inkscape:export-ydpi="209.30232"><metadata
   id="metadata23"><rdf:RDF><cc:Work
       rdf:about=""><dc:format>image/svg+xml</dc:format><dc:type
         rdf:resource="http://purl.org/dc/dcmitype/StillImage" /><dc:title /></cc:Work></rdf:RDF></metadata><defs
   id="defs21">
	<linearGradient
   y2="12.8067"
   x2="73.1934"
   y1="73.1937"
   x1="12.8064"
   gradientUnits="userSpaceOnUse"
   id="SVGID_1_">
		<stop
   id="stop7"
   style="stop-color:#41bdbd;stop-opacity:1;"
   offset="0" />
		<stop
   id="stop9"
   style="stop-color:#41bdbd;stop-opacity:1;"
   offset="1" />
	</linearGradient>
	
	
	

		
	</defs><sodipodi:namedview
   pagecolor="#ffffff"
   bordercolor="#666666"
   borderopacity="1"
   objecttolerance="10"
   gridtolerance="10"
   guidetolerance="10"
   inkscape:pageopacity="0"
   inkscape:pageshadow="2"
   inkscape:window-width="1920"
   inkscape:window-height="999"
   id="namedview19"
   showgrid="false"
   inkscape:zoom="5.4883721"
   inkscape:cx="-8.8529551"
   inkscape:cy="46.254526"
   inkscape:window-x="-9"
   inkscape:window-y="-9"
   inkscape:window-maximized="1"
   inkscape:current-layer="svg2" />
<g
   id="Layer_2"
   display="none">
</g>
<circle
   sodipodi:ry="42.700001"
   sodipodi:rx="42.700001"
   sodipodi:cy="43"
   sodipodi:cx="43"
   style="fill:url(#SVGID_1_)"
   id="circle11"
   r="42.700001"
   cy="43"
   cx="43" />
<path
   style="fill:#f1c30e"
   inkscape:connector-curvature="0"
   id="path9"
   d="m 31.777703,71.987424 c 0,2.216 -1.796,4.012 -4.012,4.012 -2.216,0 -4.011999,-1.796 -4.011999,-4.012 0,-2.216 1.795999,-4.012 4.011999,-4.012 2.215,0 4.012,1.796 4.012,4.012 z m 26.093,-4.012 c -2.216,0 -4.012,1.796 -4.012,4.012 0,2.216 1.796,4.012 4.012,4.012 2.216,0 4.012,-1.796 4.012,-4.012 0,-2.216 -1.796,-4.012 -4.012,-4.012 z" /><path
   style="fill:#ffffff"
   inkscape:connector-curvature="0"
   id="path11"
   d="m 42.817703,68.356424 c -13.473,0 -24.433999,-10.961 -24.433999,-24.434 0,-13.473 10.960999,-24.434 24.433999,-24.434 13.473,0 24.434,10.961 24.434,24.434 0,13.473 -10.961,24.434 -24.434,24.434 z" /><path
   style="fill:#e67065"
   inkscape:connector-curvature="0"
   id="path13"
   d="m 42.817703,39.604424 c -2.381,0 -4.318,1.937 -4.318,4.318 0,2.381 1.937,4.318 4.318,4.318 2.381,0 4.318,-1.938 4.318,-4.318 0,-2.381 -1.937,-4.318 -4.318,-4.318 z m 0,6.909 c -1.429,0 -2.591,-1.162 -2.591,-2.591 0,-1.429 1.162,-2.591 2.591,-2.591 1.429,0 2.591,1.162 2.591,2.591 0,1.429 -1.162,2.591 -2.591,2.591 z" /><path
   style="fill:#3a445f"
   inkscape:connector-curvature="0"
   id="path15"
   d="m 68.979703,43.922424 c 0,14.449 -11.713,26.161 -26.161,26.161 -14.448,0 -26.161999,-11.712 -26.161999,-26.161 0,-14.449 11.712999,-26.161 26.160999,-26.161 14.448,0 26.162,11.713 26.162,26.161 z m -5.182,0 c 0,-11.568 -9.411,-20.979 -20.979,-20.979 -11.568,0 -20.978999,9.411 -20.978999,20.979 0,11.568 9.410999,20.979 20.978999,20.979 11.568,0 20.979,-9.411 20.979,-20.979 z" /><path
   style="fill:#3a445f"
   inkscape:connector-curvature="0"
   id="path17"
   d="m 56.157703,30.582424 c -1.686,-1.686 -4.421,-1.686 -6.107,0 l -7.298,7.298 c 0.022,0 0.043,-0.003 0.065,-0.003 3.333,0 6.045,2.712 6.045,6.045 0,0.022 -0.003,0.043 -0.003,0.065 l 7.298,-7.298 c 1.687,-1.687 1.687,-4.421 0,-6.107 z" /><path
   style="fill:#3a445f"
   inkscape:connector-curvature="0"
   id="path19"
   d="m 36.772703,43.922424 c 0,-3.087 2.326,-5.636 5.317,-5.997 l -6.082,-4.589 c -1.904,-1.436 -4.612,-1.057 -6.048,0.846 -1.436,1.904 -1.057,4.612 0.846,6.048 l 6.035,4.553 c -0.04,-0.281 -0.068,-0.568 -0.068,-0.861 z" /><path
   style="fill:#f1c30e"
   inkscape:connector-curvature="0"
   id="path21"
   d="m 42.458703,57.537424 c -1.911,-1.911 -2.722,-4.261 -1.233,-6.405 -0.266,0.185 -0.525,0.386 -0.762,0.623 -2.148,2.148 -2.148,5.63 0,7.778 2.148,2.148 5.63,2.148 7.778,0 0.237,-0.237 0.438,-0.496 0.623,-0.762 -2.145,1.488 -4.496,0.676 -6.406,-1.234 z" /><path
   style="fill:#f1c30e"
   inkscape:connector-curvature="0"
   id="path23"
   d="m 27.271703,43.922424 1.015,2.057 2.27,0.33 -1.643,1.601 0.388,2.261 -2.031,-1.068 -2.031,1.068 0.388,-2.261 -1.642999,-1.601 2.269999,-0.33 1.017,-2.057 z m 30.077,2.057 -2.27,0.33 1.643,1.601 -0.388,2.261 2.031,-1.068 2.031,1.068 -0.388,-2.261 1.643,-1.601 -2.27,-0.33 -1.015,-2.057 -1.017,2.057 z" /><path
   style="fill:#f1c30e"
   inkscape:connector-curvature="0"
   id="path25"
   d="m 50.531703,14.774424 c 3.571,-3.389 8.967,-4.342 13.571,-2.119 l 0.456,-0.862 c 0.311,-0.586 1.036,-0.812 1.62,-0.501 0.584,0.309 0.81,1.035 0.5,1.62 l -0.524,0.992 c 4.573,3.454 6.114,9.714 3.565,14.942 -4.174,-6.98 -11.058,-12.155 -19.188,-14.072 z m -15.428,0 c -3.571,-3.389 -8.967,-4.342 -13.570999,-2.119 l -0.456,-0.862 c -0.311,-0.586 -1.036,-0.812 -1.62,-0.501 -0.584,0.309 -0.81,1.035 -0.5,1.62 l 0.524,0.992 c -4.573,3.454 -6.114,9.714 -3.565,14.942 4.175,-6.98 11.057999,-12.155 19.187999,-14.072 z m 4.005,-3.601 h 2.969 v 4.87 c 0.123,-0.002 0.245,-0.009 0.369,-0.009 0.374,0 0.744,0.014 1.114,0.028 v -4.889 h 2.969 c 0.821,0 1.484,-0.665 1.484,-1.484 0,-0.819 -0.664,-1.484 -1.484,-1.484 h -7.422 c -0.821,0 -1.484,0.665 -1.484,1.484 0,0.819 0.664,1.484 1.485,1.484 z" /></svg>