<?xml version="1.0"?>
<svg xmlns="http://www.w3.org/2000/svg" height="512px" viewBox="-20 0 512 512" width="512px"><path d="m383.730469 170.679688h-2.820313c-6.269531-45.890626-44.007812-81.902344-90.6875-85.5-7.148437-48.136719-48.746094-85.179688-98.835937-85.179688h-1.695313c-55.097656 0-99.921875 44.824219-99.921875 99.925781v30c-50.691406 7.316407-89.769531 51.050781-89.769531 103.734375v7.9375c0 57.589844 46.691406 104.472656 104.203125 104.800782l-18.953125 48.488281 28.019531 10.953125 23.234375-59.433594h29.671875l-19.285156 36.089844h51.644531l-12.3125 129.503906 88.488282-165.59375h33.46875l-18.953126 48.480469 28.019532 10.953125 23.234375-59.433594h43.25c48.445312 0 87.863281-39.414062 87.863281-87.863281s-39.417969-87.863281-87.863281-87.863281zm-152.382813 193.039062 1.488282-11.308594h-35.757813l23.109375-43.246094-1.488281 11.308594h35.757812zm152.382813-47.398438h-92.945313l13.859375-25.933593h-51.644531l18.570312-141.21875-89.320312 167.15625h-77.441406c-41.203125 0-74.726563-33.523438-74.726563-74.726563v-7.9375c0-41.203125 33.523438-74.722656 74.726563-74.722656h15.042968v-59.011719c0-38.511719 31.328126-69.839843 69.839844-69.839843h1.691406c38.511719 0 69.839844 31.332031 69.839844 69.839843v15.042969h21.285156c38.175782 0 69.230469 31.054688 69.230469 69.226562v16.570313h31.988281c31.859376 0 57.78125 25.917969 57.78125 57.78125 0 31.859375-25.917968 57.773437-57.777343 57.773437zm0 0" fill="#FFFFFF"/><path d="m96.234375 501.042969 26.972656-69 28.019531 10.953125-26.972656 69zm0 0" fill="#FFFFFF"/><path d="m232.921875 501.042969 26.972656-69 28.019531 10.953125-26.972656 69zm0 0" fill="#FFFFFF"/><path d="m301.214844 501.035156 26.972656-69 28.019531 10.953125-26.972656 69zm0 0" fill="#FFFFFF"/></svg>
